<?xml version="1.0" encoding="utf-8"?>
<!-- Uploaded to: SVG Repo, www.svgrepo.com, Generator: SVG Repo Mixer Tools -->
<svg width="800px" height="800px" viewBox="-58.01 0 363.845 363.845" xmlns="http://www.w3.org/2000/svg"><defs><style>.a{fill:#ffffff;}.b{fill:#7a7473;}.c{fill:#211715;}</style></defs><path class="a" d="M165.267,192.464c-1-.4-3.787-1.666-4.155-1.8-5.553-2-5.333-5.575-6.033-9.569a78.143,78.143,0,0,1-1.233-13.109c12.929-7.66,22.969-24.624,24.852-29.734.31-.942.942-2.717,1.5-4.823l1.174-.182a14.741,14.741,0,0,0,6.859-3.092,22.229,22.229,0,0,0,5.753-7.55,35.005,35.005,0,0,0,3.569-18.554,11.68,11.68,0,0,0-1.223-4.7A8.259,8.259,0,0,0,190.4,95.4a8.747,8.747,0,0,0-7,2.048s2-48.03-57.765-48.03c-50,0-59.035,33.4-59.627,44.549a32.33,32.33,0,0,0-.028,3.481,8.751,8.751,0,0,0-7-2.048,8.261,8.261,0,0,0-5.94,3.949,11.68,11.68,0,0,0-1.223,4.7,35.005,35.005,0,0,0,3.569,18.554,22.254,22.254,0,0,0,5.753,7.55,14.746,14.746,0,0,0,6.859,3.092s.845.13,2.236.341a59.521,59.521,0,0,0,11.344,22.146,53.167,53.167,0,0,0,14.61,12.512A78.79,78.79,0,0,1,94.949,181.1c-.7,3.994-.481,7.564-6.034,9.569-.367.133-3,1.3-4.155,1.8,0,0,2.172,21.364,37.728,21.364S165.267,192.464,165.267,192.464Z"/><path class="b" d="M108.686,3.062c-13.081,1.492-26.543,6.2-37.454,17.181L76.455,24.7c-8.9,5.5-15.892,16.155-19.1,25.587-3.779,11.1-4.907,26.889-.42,45.547l.032.137a8.2,8.2,0,0,1,2.011-.568,8.751,8.751,0,0,1,7,2.048l7.5-4.468.616-.368C89.958,77.771,98.8,71.625,113.021,60.455c.087.99,3.257,8.915,4,9.217.914.372,10.079-5.294,17.538-9.9L147.146,61.3c5.783,1.265,11.21,4.407,16.1,8.611,8.662,7.454,15.628,18.247,19.875,27.849A8.566,8.566,0,0,1,190.4,95.4a8.236,8.236,0,0,1,1.525.379c4.35-11.175,4.987-27.364-.506-42.723-3.862-10.8-13.071-22.091-20.332-25.268l-8.571-6.109C154.1,10.159,140.077,3.094,122.129,2.545A93.614,93.614,0,0,0,108.686,3.062Z"/><path class="c" d="M185.092,99.149a6.26,6.26,0,0,1,8.793.814c1.144,1.509,1.276,3.6,1.362,5.416a31.6,31.6,0,0,1-.349,6.648c-1.3,7.825-5.436,17.417-14.159,18.907a2.419,2.419,0,0,0-1.676,2.952,2.455,2.455,0,0,0,2.952,1.676c8.8-1.5,14.009-9.8,16.442-17.716a36.824,36.824,0,0,0,1.566-12.91c-.252-4.221-1.441-8.154-5.25-10.461a11.237,11.237,0,0,0-13.075,1.28,2.421,2.421,0,0,0,0,3.394,2.449,2.449,0,0,0,3.394,0Z"/><path class="c" d="M178.887,126.734a30.072,30.072,0,0,1-1.477,7.732c-.26.859-.544,1.71-.83,2.561-.091.271-.187.539-.28.809-.028.079-.065.155-.093.234-.159.438.216-.482.028-.065a60.1,60.1,0,0,1-3.909,7.144,69.813,69.813,0,0,1-15.631,18,29.782,29.782,0,0,1-11.563,5.84c-3.009.689-1.736,5.318,1.276,4.628,8.673-1.988,15.937-8.232,21.667-14.763a75.392,75.392,0,0,0,12.119-18.011,37.9,37.9,0,0,0,3.493-14.107c.1-3.089-4.7-3.086-4.8,0Z"/><path class="c" d="M67.672,95.755a11.211,11.211,0,0,0-11.508-2.037c-4.138,1.689-6.146,5.234-6.667,9.528a35.806,35.806,0,0,0,6.139,24.465c2.852,3.935,6.837,7.018,11.718,7.851a2.47,2.47,0,0,0,2.952-1.676,2.419,2.419,0,0,0-1.676-2.952c-8.722-1.49-12.856-11.082-14.159-18.907a31.489,31.489,0,0,1-.358-6.427c.075-1.836.18-3.931,1.273-5.489a6.232,6.232,0,0,1,8.892-.962,2.462,2.462,0,0,0,3.394,0,2.421,2.421,0,0,0,0-3.394Z"/><path class="c" d="M66.03,125.832A70.148,70.148,0,0,0,75,150.677c5.082,8.264,12.425,15.728,21.074,20.238a40.607,40.607,0,0,0,14.693,4.405,2.415,2.415,0,0,0,2.4-2.4,2.454,2.454,0,0,0-2.4-2.4C93.1,168.7,79.357,152.887,73.809,136.976a78.238,78.238,0,0,1-3.151-12.42,2.419,2.419,0,0,0-2.952-1.676,2.454,2.454,0,0,0-1.676,2.952Z"/><path class="c" d="M169.871,29.865a27.947,27.947,0,0,1,8.9,7.008,54.355,54.355,0,0,1,7.974,11.511c4.644,8.919,6.483,19.458,6.179,29.451a54.307,54.307,0,0,1-2.551,15.158c-.956,2.945,3.677,4.206,4.629,1.276,3.225-9.934,3.43-20.761,1.606-30.986A59.723,59.723,0,0,0,183.459,34.95c-3.071-3.635-6.769-7.257-11.165-9.23a2.475,2.475,0,0,0-3.284.861,2.42,2.42,0,0,0,.861,3.284Z"/><path class="c" d="M80.7,19.985C70.242,23.9,62.481,33.346,57.723,43.159c-4.651,9.591-6.3,20.315-6.092,30.91a105.752,105.752,0,0,0,2.985,22.4c.716,3,5.345,1.732,4.629-1.276-4.858-20.395-4.5-43.765,9.621-60.567,3.541-4.212,7.89-8.063,13.109-10.016a2.466,2.466,0,0,0,1.676-2.952A2.419,2.419,0,0,0,80.7,19.985Z"/><path class="c" d="M137.124,55.366c-5.007,3.073-9.971,6.219-15.048,9.177-1.014.59-2.032,1.174-3.066,1.729-.405.218-.813.432-1.225.635-.16.079-.322.155-.483.231-.294.14-.489.168-.042.026a1.524,1.524,0,0,0-.379.134c-.145.18-.418-.159.034.024a8.12,8.12,0,0,1,1.678.556c.127.1.3.492.042.018-.436-.805-.842-1.617-1.215-2.455-.439-.987-.842-1.975-1.289-3.164-.175-.464-.346-.928-.5-1.4-.1-.294-.347-1.5-.208-.424a2.44,2.44,0,0,0-4.1-1.7C101.951,66.117,92.347,73.17,83.38,81.032c-3.236,2.837-6.409,5.745-9.548,8.689-2.258,2.118,1.142,5.508,3.394,3.395,9.147-8.581,18.739-16.509,28.682-24.139q4.421-3.393,8.81-6.825l-4.1-1.7a25.042,25.042,0,0,0,2.185,6.325c.762,1.794,1.682,4.923,3.935,5.261,1.772.266,3.743-1.1,5.224-1.914,2.7-1.483,5.335-3.088,7.965-4.693,3.213-1.961,6.408-3.954,9.617-5.923,2.628-1.613.22-5.766-2.423-4.145Z"/><path class="c" d="M146.508,63.614c8.3,1.88,15.156,7.381,20.724,13.6a83.423,83.423,0,0,1,13.382,20.8,2.419,2.419,0,0,0,3.284.861,2.456,2.456,0,0,0,.861-3.283,87.187,87.187,0,0,0-14.418-22.083c-6.035-6.66-13.643-12.5-22.557-14.52-3.008-.682-4.292,3.945-1.276,4.628Z"/><path class="c" d="M93.778,168.682a74.6,74.6,0,0,1-.808,9.719,52.422,52.422,0,0,1-1.121,6.43,5.12,5.12,0,0,1-.784,1.685,5.808,5.808,0,0,1-2.3,1.645c-1.729.758-3.481,1.473-5.212,2.231a2.415,2.415,0,0,0-.861,3.283,2.46,2.46,0,0,0,3.284.861c1-.439,2.006-.882,3.012-1.317.215-.093.428-.187.644-.277-.187.078-.369.14-.075.037a15.86,15.86,0,0,0,2.1-.906,9.527,9.527,0,0,0,4.678-5.494,39.887,39.887,0,0,0,1.232-6.674,84.409,84.409,0,0,0,1.014-11.223c.061-3.09-4.739-3.09-4.8,0Z"/><path class="c" d="M151.449,168.682a84.409,84.409,0,0,0,1.014,11.223,36.449,36.449,0,0,0,1.315,6.905,9.62,9.62,0,0,0,5.065,5.5c.413.193.837.368,1.261.534.162.063.861.341.111.027.384.161.764.333,1.144.5,1.086.479,2.17.964,3.27,1.41a2.414,2.414,0,0,0,2.952-1.676,2.458,2.458,0,0,0-1.676-2.952c-.562-.229.519.226-.207-.086-.206-.088-.411-.178-.616-.268q-.714-.312-1.425-.628c-.772-.34-1.559-.648-2.334-.982a6.011,6.011,0,0,1-2.277-1.571,4.756,4.756,0,0,1-.867-1.784,51.27,51.27,0,0,1-1.087-6.2,74.96,74.96,0,0,1-.843-9.947c-.06-3.085-4.86-3.095-4.8,0Z"/><path class="c" d="M164.583,20.472C156.607,9.635,144.462,3.107,131.276,1.018c-13.412-2.125-28.13-.98-40.823,3.965A60.56,60.56,0,0,0,69.535,18.546c-2.188,2.186,1.2,5.581,3.394,3.394C82.407,12.471,94.95,7.117,108.165,5.524c12.543-1.513,26.034-.8,37.468,5.017a41.858,41.858,0,0,1,14.8,12.354,2.474,2.474,0,0,0,3.284.861,2.418,2.418,0,0,0,.861-3.284Z"/><path class="c" d="M114.6,144.227a22.9,22.9,0,0,0,11.03,2.543c3.9-.025,7.895-.768,11.025-3.206a2.414,2.414,0,0,0,0-3.395,2.462,2.462,0,0,0-3.394,0c.694-.54.039-.046-.139.068-.226.145-.46.28-.7.405-.141.074-.923.42-.384.2q-.476.192-.964.35a17.6,17.6,0,0,1-5.808.776,18.357,18.357,0,0,1-5.545-.747c-.353-.105-.7-.231-1.045-.351-.114-.039-.224-.089-.337-.131.589.218.075.033-.037-.019q-.648-.3-1.28-.639a2.452,2.452,0,0,0-3.284.861,2.426,2.426,0,0,0,.861,3.283Z"/><path class="c" d="M124.658,117.926a52.874,52.874,0,0,1,1.248,5.71l-.085-.638a3.463,3.463,0,0,1,.021.788l.086-.638a1.978,1.978,0,0,1-.087.355l.242-.574a1.481,1.481,0,0,1-.125.228l.375-.486a1.156,1.156,0,0,1-.186.184l.485-.375a3.482,3.482,0,0,1-.452.239l.573-.242a3.316,3.316,0,0,1-.762.223l.638-.086a3,3,0,0,1-.715,0l.638.086c-.27-.038-.535-.1-.805-.14a2.655,2.655,0,0,0-1.849.242,2.4,2.4,0,0,0-.861,3.284,2.3,2.3,0,0,0,1.434,1.1c.567.076,1.118.222,1.695.247a5.321,5.321,0,0,0,2.437-.571,3.4,3.4,0,0,0,1.92-2.257,5.857,5.857,0,0,0-.027-2.49c-.311-1.839-.736-3.663-1.209-5.467a2.4,2.4,0,0,0-4.629,1.276Z"/><path class="c" d="M93.959,101.9c-.954,3.1-.332,10.226,5.538,10.833,7.759-.047,8.172-8.664,5.56-12.716C102.919,96.7,96.631,95.316,93.959,101.9Z"/><path class="c" d="M156.091,101.9c.953,3.1.332,10.226-5.538,10.833-7.759-.047-8.172-8.665-5.56-12.717C147.131,96.7,153.419,95.316,156.091,101.9Z"/><path class="a" d="M124.993,116.967c-11.742,1.553-23.434,5.777-34.641,8.658-1.633.419-3.369.915-4.458,2.2-1.194,1.411-1.169,3.421-1.365,5.259-.468,4.4.12,21.337.249,25.879a12.176,12.176,0,0,0,2.867,6.3,52.211,52.211,0,0,0,7.156,5.486c10.842,5.517,17.564,7.337,30.188,7.416,12.634-.079,19.357-1.9,30.2-7.416a52.211,52.211,0,0,0,7.156-5.486,12.176,12.176,0,0,0,2.867-6.3c.133-4.712,1.132-21.724.681-25.953-.195-1.838-.171-3.849-1.365-5.259-1.089-1.286-6.051-2.748-4.457-2.2C160.566,125.72,137.022,118.593,124.993,116.967Z"/><path class="c" d="M124.355,114.653c-9.9,1.338-19.422,4.411-29,7.124-2.251.637-4.543,1.163-6.78,1.845-2.163.66-4.291,1.794-5.336,3.905-1.265,2.557-1.207,5.863-1.264,8.688-.123,6.064.088,12.14.266,18.2.07,2.4-.1,4.974.689,7.269a14.593,14.593,0,0,0,2.682,4.933,34.192,34.192,0,0,0,4.964,4.133,43.291,43.291,0,0,0,9.587,5.161,54.929,54.929,0,0,0,10.785,3.429,76.737,76.737,0,0,0,25.12.5,50.6,50.6,0,0,0,10.473-2.613,54.948,54.948,0,0,0,10.538-4.8,50.728,50.728,0,0,0,4.72-3.55,15.075,15.075,0,0,0,3.884-4.107,14.071,14.071,0,0,0,1.883-5.323c.1-.962.1-1.943.138-2.91.256-6,.589-12,.686-18.013a60.153,60.153,0,0,0-.233-7c-.207-2.067-.606-4.209-2.179-5.706a11.99,11.99,0,0,0-3.935-2.118c-1.107-.437-2.345-1-3.494-.331-1.45.845-1.676,3.364,0,4.145.291.136.589.25.891.359l-1.435-1.1h0l2.71-3.526c-2.9-.693-5.753-1.671-8.624-2.468-5.716-1.587-11.458-3.1-17.248-4.387-3.05-.679-6.118-1.306-9.214-1.731a2.484,2.484,0,0,0-2.953,1.676,2.416,2.416,0,0,0,1.677,2.952c10.818,1.486,21.485,4.65,31.956,7.675,1.039.3,2.077.66,3.13.912a2.4,2.4,0,0,0,1.276-4.629c-.225-.089-.641-.294.255.124v4.145l0,0-1.849.242a6.8,6.8,0,0,1,.729.234c.232.081.463.167.692.255.111.043.222.085.333.13.738.3-.184-.088.246.1a12.048,12.048,0,0,1,1.529.806c.03.019.018-.033.024-.024a3.336,3.336,0,0,1,.475,1.068,26.246,26.246,0,0,1,.454,6.658c-.029,5.627-.331,11.253-.585,16.872-.052,1.139-.1,2.277-.15,3.416q-.025.627-.047,1.255a3.519,3.519,0,0,1-.2,1.269,9.784,9.784,0,0,1-1.814,3.618,33.888,33.888,0,0,1-4.268,3.534,40.97,40.97,0,0,1-8.8,4.679,51.565,51.565,0,0,1-9.475,2.987,71.461,71.461,0,0,1-22.632.651,56.714,56.714,0,0,1-19.434-6.481,22.881,22.881,0,0,1-3.339-2.274,23.908,23.908,0,0,1-3.912-3.354,9.7,9.7,0,0,1-1.772-4.081c.031.188-.021-.641-.028-.86q-.021-.715-.043-1.429c-.168-5.539-.334-11.081-.359-16.623-.011-2.213-.041-4.444.137-6.653.1-1.221,0-2.99.756-4.025.949-1.294,3.258-1.513,4.69-1.893,8.839-2.344,17.529-5.27,26.492-7.134q3.381-.7,6.8-1.172a2.415,2.415,0,0,0,1.676-2.952A2.465,2.465,0,0,0,124.355,114.653Z"/><path class="c" d="M166.066,127.39a166.979,166.979,0,0,1,7.423-16.662,86.007,86.007,0,0,1,5.635-9.657,9.865,9.865,0,0,1,2.6-2.821,15.735,15.735,0,0,1,4.5-1.314,2.4,2.4,0,0,0-1.276-4.628c-2.741.559-5.423,1.224-7.5,3.219-2.109,2.026-3.661,4.824-5.128,7.328a145.79,145.79,0,0,0-8.135,16.518c-.954,2.232-1.883,4.474-2.749,6.741a2.419,2.419,0,0,0,1.676,2.952,2.454,2.454,0,0,0,2.953-1.676Z"/><path class="c" d="M87.928,126.029c-4.363-9.731-8.5-19.85-15.207-28.258-2.4-3.014-5.106-5.545-9.215-4.71a2.4,2.4,0,0,0,1.276,4.628,1.736,1.736,0,0,1,1.371.21,6.845,6.845,0,0,1,1.632,1.449,35.461,35.461,0,0,1,3.149,4.023,89.984,89.984,0,0,1,5.538,9.4c2.668,5.121,4.951,10.411,7.311,15.677a2.419,2.419,0,0,0,3.284.861,2.46,2.46,0,0,0,.861-3.284Z"/><path class="a" d="M2.467,323.709c.136,14.265,7.176,26.459,13.025,30.265,3.974,2.586,6.519,3.556,13.726,3.374,5.262-.132,13.839-2.2,18.439-5.079-.027,2.436-.027,5-.027,7.737l197.79,1.52c0-17.94-1.1-95.5-7.22-112a47.563,47.563,0,0,0-6.58-13.23,77.858,77.858,0,0,0-19.98-20.12c-4.02-2.85-18.23-11.17-34.85-18.69-3.729-1.692-7.458-3.52-11.015-5.512.027-.4.045-.709.045-.709.081-1.325-5.64-11.868-7.5-16.658-.124-.32-.288-.678-.616-.775-.359-.106-.713.154-1,.4-3.173,2.725-20.59,16.913-22.458,19.2-.454,1.525-1.291,5.074-2.332,8.243-2.154,5.184-4.867,11.63-6.949,15.995-1.449-3.121-4.154-9.776-5.66-13.349-1.867-5.866-2.977-8.725-3.62-10.889-1.868-2.289-19.285-16.477-22.458-19.2-.284-.244-.639-.5-1-.4-.329.1-.493.455-.617.775-1.855,4.79-7.576,15.333-7.495,16.658l-45.008,23.15c-8.215,6.5-15.939,13.086-18.885,19.014-5.175,9.8-9.442,26.523-12.5,41.164a265.988,265.988,0,0,0-5.263,49.116"/><path class="c" d="M204.355,274.022a272.575,272.575,0,0,0-3.307,38.652c-.147,9.312-.1,18.625-.045,27.937q.057,9.7.068,19.391c0,3.088,4.8,3.093,4.8,0,0-10.508-.106-21.015-.124-31.522-.018-10.531,0-21.081.75-31.589q.775-10.845,2.486-21.593a2.474,2.474,0,0,0-1.676-2.952,2.419,2.419,0,0,0-2.952,1.676Z"/><path class="c" d="M45.24,352.286q-.015,3.861-.01,7.72a2.4,2.4,0,1,0,4.8,0q0-3.859.01-7.72a2.4,2.4,0,0,0-4.8,0Z"/><path class="c" d="M127.046,216.459c-.981-2.124-1.88-4.286-2.781-6.444-.968-2.319-2.093-4.637-2.861-7.029-.812-2.529-1.673-5.041-2.533-7.554-.5-1.453-.8-3.019-1.893-4.146-2.084-2.152-4.476-4.046-6.756-5.981q-4.719-4-9.493-7.939-1.92-1.593-3.839-3.187c-1.072-.893-2.306-2.287-3.659-2.66-2.072-.57-3.323.968-4,2.653-.22.543-.076.207-.321.77q-.333.765-.684,1.523c-.969,2.107-2,4.188-3.009,6.275-.873,1.794-1.757,3.586-2.543,5.421-.536,1.252-1.2,2.577-.8,3.967a17.889,17.889,0,0,0,1.715,3.47c1.031,1.855,2.117,3.679,3.225,5.489a114.734,114.734,0,0,0,9.424,13.839,3.712,3.712,0,0,0,4.55,1c1.6-.841,2.274-3,3.057-4.525q2.431-4.741,4.922-9.453c1.446-2.728-2.7-5.156-4.144-2.423q-2.014,3.8-3.984,7.625-.863,1.677-1.721,3.356l-.512,1c-.576,1.126-.441.232,1.028.073.555-.06.383.382.2-.043a2.975,2.975,0,0,0-.358-.462c-2.719-3.559-5.169-7.333-7.533-11.134-1.775-2.856-3.58-5.741-5.073-8.758-.085-.171-.156-.355-.25-.522-.163-.288.159.61.053.1-.059-.285.058.6.057.507,0-.281-.269.592-.047.334a2.4,2.4,0,0,0,.184-.6c.1-.273.207-.541.317-.809-.2.481.178-.392.238-.526.388-.861.793-1.715,1.2-2.566.983-2.05,1.992-4.087,2.972-6.139.472-.989.94-1.981,1.387-2.982a19.643,19.643,0,0,1,1.253-2.765l-.861.861.278-.173-1.211.328.354,0-1.211-.328a1.494,1.494,0,0,1,.614.41c.234.2.47.4.7.593q.978.818,1.96,1.632,2.591,2.151,5.182,4.3c3.67,3.052,7.347,6.1,10.932,9.253A29.159,29.159,0,0,1,114,195.129l-.617-1.059a189.4,189.4,0,0,0,9.522,24.811,2.419,2.419,0,0,0,3.284.861,2.456,2.456,0,0,0,.861-3.283Z"/><path class="c" d="M127.046,218.881c1.983-4.174,3.782-8.436,5.573-12.7a57.744,57.744,0,0,0,2.387-6.387c.548-1.9,1.008-3.828,1.562-5.728l-.617,1.059a24.837,24.837,0,0,1,2.672-2.547c1.617-1.437,3.264-2.84,4.915-4.238,3.694-3.128,7.424-6.214,11.15-9.306q1.122-.932,2.242-1.865.438-.366.875-.733a2.756,2.756,0,0,1,.76-.534l-1.211.328.355,0L156.5,175.9l.279.173-.861-.861a39.752,39.752,0,0,1,2.3,5.039c.866,1.832,1.761,3.651,2.645,5.474q.645,1.326,1.275,2.66.249.528.491,1.058l.243.541c.047.1.3.707.094.206.177.426.291.887.476,1.305.1.226-.038.557-.022-.295,0,.23-.057.22.072-.5-.079.441-.007.028.06-.1a154.648,154.648,0,0,1-11.935,19.2c-.31.424-.623.847-.942,1.265-.048.063-.218.259-.268.347q-.135.173-.271.343.836-.582,1.723.361c.1-.342-.832-1.627-1.027-2.008q-.528-1.03-1.057-2.06-2.2-4.279-4.449-8.532c-1.447-2.73-5.592-.308-4.145,2.423q2.205,4.161,4.356,8.349c1.251,2.434,2.463,6.663,5.99,5.95,2.294-.464,3.733-3.3,5-5.081,1.443-2.025,2.823-4.095,4.167-6.186,2.214-3.445,4.389-6.943,6.309-10.562a7.4,7.4,0,0,0,1.214-3.178c.007-1.405-.839-2.867-1.4-4.1-1.742-3.853-3.722-7.594-5.456-11.452-.146-.326-.455-1.032-.5-1.15-.064-.154-.363-.972-.537-1.3a3.152,3.152,0,0,0-4.826-1.078c-.961.677-1.835,1.515-2.737,2.266-5.685,4.73-11.431,9.4-16.986,14.279-.978.86-1.985,1.713-2.883,2.659a5.214,5.214,0,0,0-1.226,2.4c-.392,1.448-.763,2.9-1.173,4.345a79.386,79.386,0,0,1-3.63,9.455c-1.276,2.986-2.572,5.965-3.965,8.9a2.466,2.466,0,0,0,.861,3.283,2.421,2.421,0,0,0,3.284-.861Z"/><path class="c" d="M122.573,217.67q0,31.721.223,63.441.163,29.432.354,58.862c.037,6.676.08,13.352.081,20.029,0,3.088,4.8,3.093,4.8,0,0-14.507-.133-29.014-.223-43.52q-.2-32.22-.353-64.441-.07-17.185-.082-34.371c0-3.089-4.8-3.094-4.8,0Z"/><path class="c" d="M37.421,212.718c-6.345,5.028-13.1,10.227-17.746,16.962a45.256,45.256,0,0,0-4.312,8.657c-1.415,3.462-2.613,7.011-3.7,10.586A265.259,265.259,0,0,0,2,295.082c-1.126,9.5-1.7,19.062-1.931,28.627-.074,3.09,4.726,3.089,4.8,0a269.094,269.094,0,0,1,4.862-46.946C11.3,269,13.1,261.27,15.267,253.654c1.877-6.58,3.967-13.224,7.18-19.292a35.236,35.236,0,0,1,7.107-8.678c3.561-3.407,7.4-6.513,11.261-9.572a2.413,2.413,0,0,0,0-3.394,2.459,2.459,0,0,0-3.394,0Z"/><path class="c" d="M.067,323.709a49.157,49.157,0,0,0,4.62,20.1c2.145,4.59,5.16,9.22,9.411,12.117a21.679,21.679,0,0,0,6.143,3.015,29.523,29.523,0,0,0,8.977.808A45.3,45.3,0,0,0,46.5,355.6a23.726,23.726,0,0,0,13.049-15.791c.677-3.008-3.949-4.293-4.628-1.276a18.984,18.984,0,0,1-9.67,12.344,38.517,38.517,0,0,1-14.849,4.011,29.554,29.554,0,0,1-7.523-.253,14.562,14.562,0,0,1-5.418-2.25c-.381-.237-.758-.479-1.128-.734a3.349,3.349,0,0,1-.629-.5,22.477,22.477,0,0,1-2.255-2.291,31.083,31.083,0,0,1-3.736-5.695,43.287,43.287,0,0,1-4.849-19.459c-.046-3.086-4.846-3.1-4.8,0Z"/><path class="a" d="M39.678,232.543c-1.209-12.422-.962-23.562,5.927-35.678A123.8,123.8,0,0,1,65.2,170.641c2.454-2.584,2.98-4.5,6.444-5.334s7.268,1.346,7,5.556c-.129,2.026-2.767,5.724-4.666,7.889-4.778,5.444-7.149,8.67-13.746,15.736l1.016.912a49.253,49.253,0,0,1,15.841-4.759c2.982-.26,6.179-.487,8.778,1s3.666,5.333.444,8.444l-.306.3,1.6.223a5.411,5.411,0,0,1,4.26,4.037,5.654,5.654,0,0,1-2.519,6.074l-.136.07,1.377.467c1.064.361,3.8,2.049,3.8,5.092,0,2.911-1.681,3.887-4.57,4.241a19.307,19.307,0,0,0-9.123,3.384c1.673,4.515.195,9.613-2.093,13.85s-7.355,9.211-9.228,13.647a61.1,61.1,0,0,0-4.208,21.493A248.479,248.479,0,0,1,62.1,304.721c-2.442.981-4.818,1.851-7.483,2.764-2.828.969-5.776,1.868-8.752,1.6-2.869-.258-5.52-1.579-8.071-2.915-4.955-2.6-9.947-5.432-13.543-9.716a9.046,9.046,0,0,1-2.328-5.356c2.11-9.919,17.525-32.944,19.584-42.812C40.885,242.733,40.164,237.535,39.678,232.543Z"/><path class="c" d="M24.222,291.8a34.312,34.312,0,0,1,2.4-6.758c1.367-3.036,2.887-6,4.429-8.95,3.233-6.184,6.675-12.276,9.59-18.62a41.982,41.982,0,0,0,3.176-8.544c.647-3.012-3.979-4.3-4.629-1.276a34.247,34.247,0,0,1-2.4,6.758c-1.367,3.035-2.887,6-4.43,8.95-3.233,6.183-6.674,12.276-9.589,18.62a41.982,41.982,0,0,0-3.176,8.544c-.647,3.012,3.979,4.3,4.628,1.276Z"/><path class="c" d="M43.941,248.614c-1.011-9.084-2.57-18.2-2.413-27.367a50.382,50.382,0,0,1,1.725-12.617,52.035,52.035,0,0,1,5.51-12.436A125.567,125.567,0,0,1,64.906,174.46c1.451-1.573,2.857-3.152,4.24-4.783a5.27,5.27,0,0,1,3.689-2.139,3.2,3.2,0,0,1,2.992,1.324c.84,1.334.423,2.3-.293,3.606-2,3.65-5.077,6.667-7.743,9.83-3.009,3.569-6.077,7.078-9.26,10.493-2.1,2.258,1.283,5.66,3.394,3.394,3.113-3.339,6.119-6.767,9.061-10.257,2.661-3.156,5.606-6.18,7.858-9.651a11.241,11.241,0,0,0,2.209-5.77,7.554,7.554,0,0,0-2.59-5.837c-3.463-2.927-8.745-2.329-11.917.746-1.534,1.486-2.823,3.275-4.283,4.841-1.781,1.908-3.524,3.853-5.206,5.849A122.006,122.006,0,0,0,48.3,187.814a85.857,85.857,0,0,0-7.57,13.544,51.126,51.126,0,0,0-3.646,14.19c-1.251,11.019.838,22.138,2.054,33.066a2.473,2.473,0,0,0,2.4,2.4,2.415,2.415,0,0,0,2.4-2.4Z"/><path class="c" d="M62.455,197.472a40.919,40.919,0,0,1,14.834-4.449c2.312-.2,5.678-.623,7.585.81,1.6,1.2,1.137,3.132-.264,4.555-2.169,2.2,1.223,5.6,3.394,3.394,2.509-2.549,3.594-6.277,1.74-9.537-1.9-3.336-6.01-4.237-9.567-4.191a45.986,45.986,0,0,0-20.145,5.273c-2.741,1.427-.316,5.571,2.423,4.145Z"/><path class="c" d="M71.963,207.306A28.139,28.139,0,0,1,85.7,202.921c1.814-.054,3.072.282,3.749,2.067-.013-.034.22.8.156.4a3.606,3.606,0,0,1,.019.657c0,.2.035-.03-.029.308a4.72,4.72,0,0,1-.227.807,2.82,2.82,0,0,1-1.239,1.487c-2.69,1.519-.274,5.667,2.422,4.144a7.911,7.911,0,0,0-2.015-14.446c-3.071-.685-6.538.061-9.523.836a33.14,33.14,0,0,0-9.477,3.984c-2.6,1.649-.2,5.8,2.423,4.145Z"/><path class="c" d="M75.815,216.861a26.506,26.506,0,0,1,8.679-3.56,12.449,12.449,0,0,1,3.813-.144c.2.025.928.2,1.383.326a2.685,2.685,0,0,0,.361.121c-.066-.008-.4-.258-.273-.113a2.956,2.956,0,0,0,.562.307,3.8,3.8,0,0,1,1.418,1.511,2.942,2.942,0,0,1,.223,1.035c0,.112-.048.744.008.366-.022.147-.219.929-.069.449-.055.177-.311.5-.037.166-.064.079-.522.48-.313.329s-.32.163-.439.22c.422-.2-.336.09-.464.124-1.264.333-2.493.36-3.979.7a24.256,24.256,0,0,0-7.211,3.2c-2.636,1.6-.227,5.755,2.423,4.145a34.617,34.617,0,0,1,3.076-1.743c.14-.066.28-.131.422-.193-.337.147.04-.014.093-.034.318-.122.639-.237.965-.34a19.577,19.577,0,0,1,2.436-.6,17.684,17.684,0,0,0,4.566-1.074,5.684,5.684,0,0,0,2.929-3.238,7.6,7.6,0,0,0-2.436-8.3,11.366,11.366,0,0,0-8.259-2.189,28.642,28.642,0,0,0-12.3,4.384c-2.642,1.594-.231,5.746,2.423,4.144Z"/><path class="c" d="M78.374,224.607c1.987,5.7-1.174,11.535-4.524,16.011-1.761,2.351-3.665,4.612-5.217,7.113a32.076,32.076,0,0,0-3.278,7.922,65.466,65.466,0,0,0-2.6,17.479c-.05,3.6-.316,7.212-.592,10.8-.533,6.943-1.288,13.877-2.485,20.739a2.47,2.47,0,0,0,1.676,2.953,2.421,2.421,0,0,0,2.952-1.677,223.121,223.121,0,0,0,3.234-32.1,66.773,66.773,0,0,1,2.1-15.724,29.783,29.783,0,0,1,2.934-7.65,83.283,83.283,0,0,1,5.172-7.115c4.2-5.565,7.7-12.99,5.248-20.029a2.459,2.459,0,0,0-2.952-1.676,2.423,2.423,0,0,0-1.676,2.953Z"/><path class="a" d="M65.656,303.236c-3.811,1.65-7.112,2.9-11.041,4.249-2.828.969-5.776,1.868-8.752,1.6-2.869-.258-5.52-1.579-8.071-2.915-4.955-2.6-9.947-5.432-13.543-9.716S21.77,288.39,23.7,283.14c-5.461.02-13.551,4.456-15.925,9.375-2.33,4.829-4.9,11.973-5.243,17.324a14.363,14.363,0,0,0,1.088,7.485,16.4,16.4,0,0,0,3.645,4.337,67.1,67.1,0,0,0,47.662,17.476c4.129-.174,8.481-1.106,11.445-3.986s3.842-8.164.937-11.1c-.8-.805-1.889-1.538-1.957-2.668-.067-1.105.888-1.958,1.644-2.768,4.206-4.5,3.049-12.807-2.228-15.991"/><path class="c" d="M64.445,301.163c-3.577,1.543-7.225,2.919-10.916,4.16a22.47,22.47,0,0,1-5.791,1.387,12.506,12.506,0,0,1-5.6-1.077,62.621,62.621,0,0,1-9.713-5.3c-2.786-1.813-6.014-4.147-7.522-7.2-1.472-2.985.064-6.489,1.112-9.355A2.416,2.416,0,0,0,23.7,280.74c-5.167.091-10.315,2.613-14.194,5.91-4.044,3.437-5.842,8.776-7.41,13.693-1.715,5.374-3.237,12.012-.9,17.421,1.171,2.707,3.382,4.752,5.555,6.671a67.36,67.36,0,0,0,7.008,5.4,70.325,70.325,0,0,0,32.33,11.451c5.485.532,11.693.805,16.9-1.273,5.257-2.1,9.227-6.939,8.361-12.848a8.532,8.532,0,0,0-1.538-3.838,11.693,11.693,0,0,0-1.445-1.58c-.182-.171-.514-.39-.62-.614s-.052.3.041.144c.631-1.049,1.721-1.841,2.374-2.916a11.9,11.9,0,0,0,1.452-3.657,13.406,13.406,0,0,0-5.643-14.161c-2.624-1.646-5.036,2.5-2.422,4.145a8.486,8.486,0,0,1,3.437,8.74c-.423,1.978-1.463,3.066-2.714,4.605a4.8,4.8,0,0,0-1.218,4.143,6.217,6.217,0,0,0,2.048,3.085c2.938,2.788,1.357,7.245-1.752,9.235-4.062,2.6-9.419,2.438-14.051,2.22a65.132,65.132,0,0,1-28.83-8.375A60.5,60.5,0,0,1,8.366,319.4c-1.831-1.755-3.169-3.55-3.432-6.145A22.983,22.983,0,0,1,5.525,306a57.248,57.248,0,0,1,2.734-8.664,18.266,18.266,0,0,1,3.164-5.886c3.012-3.239,7.862-5.828,12.275-5.906L21.384,282.5c-1.265,3.458-2.52,7.189-1.5,10.881,1.1,3.989,4.528,7.01,7.711,9.416a64.555,64.555,0,0,0,11.021,6.476,21.534,21.534,0,0,0,6.475,2.118,18.34,18.34,0,0,0,7.22-.669,110.921,110.921,0,0,0,14.555-5.416,2.415,2.415,0,0,0,.861-3.284,2.462,2.462,0,0,0-3.283-.861Z"/><path class="c" d="M164.389,193.949c4.921,2.753,10.049,5.039,15.146,7.435q7.014,3.3,13.862,6.931a153.6,153.6,0,0,1,17.234,10.078c12.237,8.7,23.234,21.311,26.513,36.3.456,2.081.81,4.185,1.123,6.293.089.592.172,1.185.254,1.779.013.091.064.47,0,.01.02.146.039.291.058.437q.072.557.142,1.113.249,1.986.462,3.977c.668,6.174,1.146,12.368,1.549,18.565.9,13.771,1.412,27.568,1.776,41.363.273,10.366.466,20.736.506,31.106q0,1.095,0,2.19c0,3.089,4.8,3.094,4.8,0,0-9.653-.174-19.307-.4-28.957-.328-13.873-.808-27.746-1.629-41.6-.695-11.732-1.4-23.615-3.542-35.191-2.647-14.327-11.386-26.76-22.306-36.157A108.431,108.431,0,0,0,201.756,207.4c-9.029-5.047-18.379-9.328-27.683-13.824q-3.685-1.78-7.261-3.772c-2.7-1.51-5.122,2.635-2.423,4.145Z"/><path class="c" d="M43.863,323.7a18.1,18.1,0,0,0,10.9.5,2.4,2.4,0,1,0-1.276-4.628c-.388.1-.778.192-1.172.265-.071.013-.757.155-.359.066s-.285.031-.364.039a15.707,15.707,0,0,1-2.316.048c-.364-.019-.75-.108-1.112-.1.354.049.4.054.128.014-.114-.017-.226-.036-.339-.057q-.253-.045-.506-.1a15.931,15.931,0,0,1-2.3-.682,2.41,2.41,0,0,0-2.952,1.676,2.465,2.465,0,0,0,1.676,2.952Z"/></svg>